# xmcd
#
# Track frame offsets:
#	182
#	14925
#	27225
#	37475
#	53600
#	67800
#	81675
#	102950
#	115925
#	126937
#	141975
#	154500
#	169725
#	180800
#	195687
#	211125
#	226325
#	237375
#	246950
#
# Disc length: 3542
#
# Revision: 1
# Processed by: cddbd v1.5.1PL0 Copyright (c) Steve Scherf et al.
# Submitted via: dBpowerAMP V4.0
# Normalized: r0:TRMNUM
#
DISCID=0d0dd413
DTITLE=Varios - El Cante de Mujer. Segunda Selección [CD1]
DYEAR=1994
DGENRE=Flamenco
TTITLE0=Perla de Cádiz (con Manuel Morao) - Que cosa dice este loco (Soleares)
TTITLE1=Gloria Moreno (co Juanito Riera) - Como mi mare ninguna (Malagueña y fandangos)
TTITLE2=Dolores de Córdoba (con Félix de Utrera y A. Duque) - Pájaro verde (Bulerías de Navidad)
TTITLE3=Maria ''La Talegona'' (con Antonio Dueñas y Andrés Batista) - La que habita en la carrera (Media granaina)
TTITLE4=Fernanda de Utrera (con Juan Maya Marote) - Si te publico me pierdo (Tangos)
TTITLE5=Niña de La Puebla (con Manolo de Badajoz) - Eres alto y delagadito (Fandangos camperos de La Puebla)
TTITLE6=Carmen Linares (con Pepe habichuela y Juan carmona) - Aquel que tenga un sentir (Bulerías por Soleá)
TTITLE7=La Niña de los Peines (conMelchor de Marchena) - Entre sábanas de Holanda (Bamberas)
TTITLE8=Lola Flores (con Paco Aguilera) - Sevillanas rocianas (Sevillanas)
TTITLE9=Amina (con Félix de Utrera y Enrique Abadía) - Taranteando (Taranto por rumba)
TTITLE10=Rafaela Reyes ''La Repompilla'' (con Antonio Vargas) - Campanero de San Roque (Bulerías de ''La Repompa'')
TTITLE11=Adelfa Soto (con Pepe Martínez) - Canto a la madre (Campanilleros)
TTITLE12=Gracia de Triana - Mi compañera la hija de D. Juan Alba (Tanguillos de Cádiz)
TTITLE13=Dolores la del Cepillo - Hija mía de mi alma (Romance o corrido gitano)
TTITLE14=Carmen Amaya - Mi madre ''La Tana'' (Zambra)
TTITLE15=Hermanas Garrido ''Las cartageneras'' - Si me quieres dímelo (Tangos extremeños)
TTITLE16=Angelita de Córdoba ''La Chacarrera'' (con Remolino Hijo, Luis Verdú y Luis González) - La noche de mi mal (Rumba flamenca)
TTITLE17=Ana María ''La Jerezana'' (con Triquito y Andrés Heredia) - Hay un Lucero escondido
TTITLE18=Bernarda de Utrera (con Juan Carmona ''Habichuela'' y Juan Maya Marote - Plegaria Gitana (Tientos -tangos)
EXTD=
EXTT0=
EXTT1=
EXTT2=
EXTT3=
EXTT4=
EXTT5=
EXTT6=
EXTT7=
EXTT8=
EXTT9=
EXTT10=
EXTT11=
EXTT12=
EXTT13=
EXTT14=
EXTT15=
EXTT16=
EXTT17=
EXTT18=
PLAYORDER=
